####
#
#	OBJ File Generated by LightWave3D
#	LightWave3D OBJ Export v2.3
#
####
o ToyRocket.obj
mtllib ToyRocket.mtl
g default
v -0.332266 1.95608e-016 -0.808928
v -0.667734 1.35047e-016 -0.591072
v -1.1 1.74512e-016 -0.95
v -0.332266 -0.808928 -0
v -0.667734 -0.591072 -0
v -1.1 -0.95 -0
v -0.332266 -2.52235e-018 0.808928
v -0.667734 -9.72404e-018 0.591072
v -1.1 -5.81707e-017 0.95
v -0.332266 0.808928 9.90651e-017
v -0.667734 0.591072 7.23855e-017
v -1.1 0.95 1.16341e-016
v 0.525 0.25 -0.433013
v 2.38419e-008 0.25 -0.433013
v -0.725 0.125 -0.216506
v -1.1 0.25 -0.433013
v 0.525 -0.25 -0.433013
v 2.38419e-008 -0.25 -0.433013
v -0.725 -0.125 -0.216506
v -1.1 -0.25 -0.433013
v 0.525 0.5 -0
v 0.525 0.25 0.433013
v 2.38419e-008 0.5 -0
v 2.38419e-008 0.25 0.433013
v -0.725 0.25 -0
v -0.725 0.125 0.216506
v -1.1 0.25 0.433013
v -1.1 0.5 -0
v 1.4 1.53081e-016 -0
v 0.525 -0.5 -0
v 0.525 -0.25 0.433013
v 2.38419e-008 -0.5 -0
v 2.38419e-008 -0.25 0.433013
v -0.725 -0.25 -0
v -0.725 -0.125 0.216506
v -1.1 -0.25 0.433013
v -1.1 -0.5 -0
v -0.2 0 -0
vt 0 0.00519998
vt 0 0.1537
vt 0 0.4408
vt 0 0.6487
vt 0.0983333 0.9952
vt 0.0983334 0.9952
vt 0.196667 0.00519998
vt 0.196667 0.1537
vt 0.196667 0.4408
vt 0.196667 0.6487
vt 0.295 0.9952
vt 0.393333 0.00519998
vt 0.393333 0.1537
vt 0.393333 0.4408
vt 0.393333 0.6487
vt 0.491667 0.9952
vt 0.59 0.00519998
vt 0.59 0.1537
vt 0.59 0.4408
vt 0.59 0.6487
vt 0.647069 0.295888
vt 0.65724 0.691744
vt 0.679425 0.904321
vt 0.713686 0.811434
vt 0.731894 0.148688
vt 0.731894 0.443088
vt 0.767324 0.940944
vt 0.80664 0.691744
vt 0.80664 0.811434
vt 0.80664 0.904321
vt 0.80664 0.940944
vt 0.845956 0.940944
vt 0.899594 0.811434
vt 0.901544 0.148688
vt 0.901544 0.443088
vt 0.933855 0.904321
vt 0.95604 0.691744
vt 0.986369 0.295888
vn -0.5547 0.416025 -0.720577
vn 0.213202 -0.319801 -0.923186
vn -0.316228 -0.948683 -0
vn -0.316228 0.948683 -0
vn -0.5547 0.416025 -0.720577
vn -0.316228 -0.948683 -0
vn -0.5547 -0.416025 0.720577
vn -0.316228 0.948683 -0
vn -0.316228 -0.948683 -0
vn 0.213202 0.319801 0.923186
vn -0.316228 0.948683 -0
vn -0.5547 -0.416025 0.720577
vn 0.0634993 -0.564485 -0.822997
vn 0.134145 -0.990962 -0
vn -0.316228 -0.948683 -0
vn 0.213202 -0.319801 -0.923186
vn 0.0634993 -0.564485 -0.822997
vn -0.316228 -0.948683 -0
vn -0.5547 0.416025 -0.720577
vn 0.202863 0.56148 -0.802238
vn 0.213202 -0.319801 -0.923186
vn 0.202863 0.56148 -0.802238
vn 0.0634993 -0.564485 -0.822997
vn 0.213202 -0.319801 -0.923186
vn -0.5547 0.416025 -0.720577
vn -0.316228 0.948683 -0
vn 0.202863 0.56148 -0.802238
vn -0.316228 0.948683 -0
vn 0.134145 0.990962 -0
vn 0.202863 0.56148 -0.802238
vn -0.316228 0.948683 -0
vn 0.213202 0.319801 0.923186
vn 0.0634993 0.564485 0.822997
vn 0.134145 0.990962 -0
vn -0.316228 0.948683 -0
vn 0.0634993 0.564485 0.822997
vn 0.202863 -0.56148 0.802238
vn 0.213202 0.319801 0.923186
vn -0.5547 -0.416025 0.720577
vn 0.0634993 0.564485 0.822997
vn 0.213202 0.319801 0.923186
vn 0.202863 -0.56148 0.802238
vn 0.202863 -0.56148 0.802238
vn -0.5547 -0.416025 0.720577
vn -0.316228 -0.948683 -0
vn 0.134145 -0.990962 -0
vn 0.202863 -0.56148 0.802238
vn -0.316228 -0.948683 -0
vn 0.134145 -0.990962 -0
vn 0.0634993 -0.564485 -0.822997
vn -0.189257 -0.978441 0.0826758
vn 0.0634993 -0.564485 -0.822997
vn -0.111003 -0.49691 -0.860673
vn -0.189257 -0.978441 0.0826758
vn 0.202863 0.56148 -0.802238
vn -0.166379 0.496536 -0.851921
vn 0.0634993 -0.564485 -0.822997
vn 0.0634993 -0.564485 -0.822997
vn -0.166379 0.496536 -0.851921
vn -0.111003 -0.49691 -0.860673
vn 0.134145 0.990962 -0
vn -0.189257 0.978441 0.0826758
vn 0.202863 0.56148 -0.802238
vn -0.189257 0.978441 0.0826758
vn -0.166379 0.496536 -0.851921
vn 0.202863 0.56148 -0.802238
vn -0.189257 0.978441 0.0826758
vn 0.134145 0.990962 -0
vn 0.0634993 0.564485 0.822997
vn -0.132321 0.392102 0.910355
vn -0.189257 0.978441 0.0826758
vn 0.0634993 0.564485 0.822997
vn 0.0634993 0.564485 0.822997
vn 0.202863 -0.56148 0.802238
vn -0.198048 -0.391247 0.898723
vn -0.132321 0.392102 0.910355
vn 0.0634993 0.564485 0.822997
vn -0.198048 -0.391247 0.898723
vn -0.198048 -0.391247 0.898723
vn 0.202863 -0.56148 0.802238
vn -0.189257 -0.978441 0.0826758
vn 0.202863 -0.56148 0.802238
vn 0.134145 -0.990962 -0
vn -0.189257 -0.978441 0.0826758
vn -0.111003 -0.49691 -0.860673
vn 0.207572 -0.971198 -0.116999
vn -0.189257 -0.978441 0.0826758
vn -0.111003 -0.49691 -0.860673
vn 0.260741 -0.482705 -0.836068
vn 0.207572 -0.971198 -0.116999
vn -0.166379 0.496536 -0.851921
vn 0.207572 0.384275 -0.899581
vn -0.111003 -0.49691 -0.860673
vn 0.207572 0.384275 -0.899581
vn 0.260741 -0.482705 -0.836068
vn -0.111003 -0.49691 -0.860673
vn -0.189257 0.978441 0.0826758
vn 0.207572 0.971198 -0.116999
vn -0.166379 0.496536 -0.851921
vn 0.207572 0.971198 -0.116999
vn 0.207572 0.384275 -0.899581
vn -0.166379 0.496536 -0.851921
vn 0.207572 0.586923 0.782582
vn -0.189257 0.978441 0.0826758
vn -0.132321 0.392102 0.910355
vn 0.207572 0.971198 -0.116999
vn -0.189257 0.978441 0.0826758
vn 0.207572 0.586923 0.782582
vn 0.174129 -0.492361 0.852795
vn -0.132321 0.392102 0.910355
vn -0.198048 -0.391247 0.898723
vn 0.207572 0.586923 0.782582
vn -0.132321 0.392102 0.910355
vn 0.174129 -0.492361 0.852795
vn 0.174129 -0.492361 0.852795
vn -0.198048 -0.391247 0.898723
vn -0.189257 -0.978441 0.0826758
vn 0.207572 -0.971198 -0.116999
vn 0.174129 -0.492361 0.852795
vn -0.189257 -0.978441 0.0826758
vn 0.260741 -0.482705 -0.836068
vn 1 0 -0
vn 0.207572 -0.971198 -0.116999
vn 0.207572 0.384275 -0.899581
vn 1 0 -0
vn 0.260741 -0.482705 -0.836068
vn 0.207572 0.384275 -0.899581
vn 0.207572 0.971198 -0.116999
vn 1 0 -0
vn 0.207572 0.971198 -0.116999
vn 0.207572 0.586923 0.782582
vn 1 0 -0
vn 1 0 -0
vn 0.207572 0.586923 0.782582
vn 0.174129 -0.492361 0.852795
vn 1 0 -0
vn 0.174129 -0.492361 0.852795
vn 0.207572 -0.971198 -0.116999
vn -4.1235e-017 1 2.1449e-016
vn -4.1235e-017 1 2.1449e-016
vn 2.0797e-006 -1 -0
vn -4.1235e-017 1 2.1449e-016
vn -6.12327e-017 1 1.83697e-016
vn -4.1235e-017 1 2.1449e-016
vn 0 0 -1
vn 2.0797e-006 -1 -0
vn 0 0 -1
vn 0 0 -1
vn 0 0 -1
vn 0 0 -1
vn 2.0797e-006 -1 -0
vn 4.12349e-017 -1 -3.0439e-017
vn 4.12349e-017 -1 -3.0439e-017
vn 4.12349e-017 -1 -3.0439e-017
vn 4.12349e-017 -1 -3.0439e-017
vn 6.12324e-017 -1 -6.12323e-017
vn -1.38174e-022 -1.22464e-016 1
vn -1.38174e-022 -1.22464e-016 1
vn 2.0797e-006 -1 -0
vn -1.38174e-022 -1.22464e-016 1
vn -4.08616e-022 -1.22464e-016 1
vn -1.38174e-022 -1.22464e-016 1
g group_Default
usemtl Default
s 1
f 16/26/1 20/35/2 37/38/3
f 28/21/4 16/26/5 37/38/6
f 36/34/7 28/21/8 37/38/9
f 27/25/10 28/21/11 36/34/12
f 19/8/13 34/2/14 37/1/15
f 20/7/16 19/8/17 37/1/18
f 16/12/19 15/13/20 20/7/21
f 15/13/22 19/8/23 20/7/24
f 16/12/25 28/17/26 15/13/27
f 28/17/28 25/18/29 15/13/30
f 28/1/31 27/7/32 26/8/33
f 25/2/34 28/1/35 26/8/36
f 35/13/37 27/7/38 36/12/39
f 26/8/40 27/7/41 35/13/42
f 35/13/43 36/12/44 37/17/45
f 34/18/46 35/13/47 37/17/48
f 34/2/49 19/8/50 32/3/51
f 19/8/52 18/9/53 32/3/54
f 15/13/55 14/14/56 19/8/57
f 19/8/58 14/14/59 18/9/60
f 25/18/61 23/19/62 15/13/63
f 23/19/64 14/14/65 15/13/66
f 23/3/67 25/2/68 26/8/69
f 24/9/70 23/3/71 26/8/72
f 26/8/73 35/13/74 33/14/75
f 24/9/76 26/8/77 33/14/78
f 33/14/79 35/13/80 32/19/81
f 35/13/82 34/18/83 32/19/84
f 18/9/85 30/4/86 32/3/87
f 18/9/88 17/10/89 30/4/90
f 14/14/91 13/15/92 18/9/93
f 13/15/94 17/10/95 18/9/96
f 23/19/97 21/20/98 14/14/99
f 21/20/100 13/15/101 14/14/102
f 22/10/103 23/3/104 24/9/105
f 21/4/106 23/3/107 22/10/108
f 31/15/109 24/9/110 33/14/111
f 22/10/112 24/9/113 31/15/114
f 31/15/115 33/14/116 32/19/117
f 30/20/118 31/15/119 32/19/120
f 17/10/121 29/6/122 30/4/123
f 13/15/124 29/11/125 17/10/126
f 13/15/127 21/20/128 29/16/129
f 21/4/130 22/10/131 29/5/132
f 29/11/133 22/10/134 31/15/135
f 29/16/136 31/15/137 30/20/138
f 1/30/139 2/29/140 38/31/141
f 1/30/142 3/28/143 2/29/144
f 5/33/145 38/32/146 4/36/147
f 5/33/148 4/36/149 6/37/150
f 38/31/151 7/30/152 8/29/153
f 8/29/154 7/30/155 9/28/156
f 10/23/157 11/24/158 38/27/159
f 10/23/160 12/22/161 11/24/162
